#tb 0: 1/25
0,          0,          0,        1,   149760, 0xb989ae7a
0,          1,          1,        1,   149760, 0x4765caed
0,          2,          2,        1,   149760, 0xd908c148
0,          3,          3,        1,   149760, 0xf6ebd66c
0,          4,          4,        1,   149760, 0x5d5ea14b
0,          5,          5,        1,   149760, 0xcc939a7c
0,          6,          6,        1,   149760, 0xa91b8243
0,          7,          7,        1,   149760, 0x61926618
0,          8,          8,        1,   149760, 0xe440099c
0,          9,          9,        1,   149760, 0x18b88a73
0,         10,         10,        1,   149760, 0xa669f2a9
0,         11,         11,        1,   149760, 0xc2f6af3a
0,         12,         12,        1,   149760, 0x02465354
0,         13,         13,        1,   149760, 0x54e51ff9
0,         14,         14,        1,   149760, 0xb9f3c056
0,         15,         15,        1,   149760, 0x050274f9
0,         16,         16,        1,   149760, 0xd7a413c1
0,         17,         17,        1,   149760, 0x6e92cda4
0,         18,         18,        1,   149760, 0x9cb86d4d
0,         19,         19,        1,   149760, 0x95f440a3
0,         20,         20,        1,   149760, 0x6dabd616
0,         21,         21,        1,   149760, 0xd6a0b62d
0,         22,         22,        1,   149760, 0x585c811b
0,         23,         23,        1,   149760, 0x50a4d6fc
0,         24,         24,        1,   149760, 0xe419eb23
0,         25,         25,        1,   149760, 0x1f0fc316
0,         26,         26,        1,   149760, 0xf61dc981
0,         27,         27,        1,   149760, 0xff34d001
0,         28,         28,        1,   149760, 0x598be76c
0,         29,         29,        1,   149760, 0xbb50a4d6
0,         30,         30,        1,   149760, 0x2add9abd
0,         31,         31,        1,   149760, 0xd74185c7
0,         32,         32,        1,   149760, 0xcdad6e8e
0,         33,         33,        1,   149760, 0x54d704ad
0,         34,         34,        1,   149760, 0xe52e7fc0
0,         35,         35,        1,   149760, 0xdb331061
0,         36,         36,        1,   149760, 0x7dacb973
0,         37,         37,        1,   149760, 0xfc8d5670
0,         38,         38,        1,   149760, 0xca9024cd
0,         39,         39,        1,   149760, 0x7fc9bbc2
0,         40,         40,        1,   149760, 0xe9c386a9
0,         41,         41,        1,   149760, 0xd0dd1a21
0,         42,         42,        1,   149760, 0x4b57d734
0,         43,         43,        1,   149760, 0x55607afc
0,         44,         44,        1,   149760, 0x567c3e8b
0,         45,         45,        1,   149760, 0x312eda16
0,         46,         46,        1,   149760, 0xafcbacf8
0,         47,         47,        1,   149760, 0xcbde8420
0,         48,         48,        1,   149760, 0x88a2f29e
0,         49,         49,        1,   149760, 0x417bf220
0,         50,         50,        1,   149760, 0xa454835a
0,         51,         51,        1,   149760, 0x16bf2871
0,         52,         52,        1,   149760, 0x51253402
0,         53,         53,        1,   149760, 0x13822dfd
0,         54,         54,        1,   149760, 0x5e099d3d
0,         55,         55,        1,   149760, 0xcc19fe87
0,         56,         56,        1,   149760, 0x7f5f6ce2
0,         57,         57,        1,   149760, 0x79797a94
0,         58,         58,        1,   149760, 0x16f26086
0,         59,         59,        1,   149760, 0x01aedea3
0,         60,         60,        1,   149760, 0xcafd3221
0,         61,         61,        1,   149760, 0xcbd61c1f
0,         62,         62,        1,   149760, 0xf46839e5
0,         63,         63,        1,   149760, 0x87fb61ee
0,         64,         64,        1,   149760, 0x3362678b
0,         65,         65,        1,   149760, 0x6e7fc851
0,         66,         66,        1,   149760, 0x33f96449
0,         67,         67,        1,   149760, 0xb3ba8cfb
0,         68,         68,        1,   149760, 0x64787995
0,         69,         69,        1,   149760, 0xc10de4c4
0,         70,         70,        1,   149760, 0x18dd343f
0,         71,         71,        1,   149760, 0xa1c51358
0,         72,         72,        1,   149760, 0x91fe6361
0,         73,         73,        1,   149760, 0xeec85f94
0,         74,         74,        1,   149760, 0x00a57402
0,         75,         75,        1,   149760, 0x4e88cc16
0,         76,         76,        1,   149760, 0xdbd51976
0,         77,         77,        1,   149760, 0xfebf6b1a
0,         78,         78,        1,   149760, 0x052546d2
0,         79,         79,        1,   149760, 0x046cd73b
